<svg id="Layer_1" data-name="Layer 1" xmlns="http://www.w3.org/2000/svg" viewBox="0 0 70 70"><title>logo crok halal fnl</title><path d="M22.08,50.84a1.07,1.07,0,0,0-.85-.39,1,1,0,0,0-.73.27,2.79,2.79,0,0,0-.56.73,3.32,3.32,0,0,1-1.06,1.2,2.84,2.84,0,0,1-2.6.14,2.31,2.31,0,0,1-.89-.7A3.21,3.21,0,0,1,14.82,51a5.09,5.09,0,0,1-.19-1.45,4.16,4.16,0,0,1,.76-2.65,2.63,2.63,0,0,1,3.43-.59,4.25,4.25,0,0,1,1.07,1.17,3.69,3.69,0,0,0,.52.59,1,1,0,0,0,.58.17,1.29,1.29,0,0,0,.91-.34,1.15,1.15,0,0,0,.38-.86,2.05,2.05,0,0,0-.34-1.06,3.8,3.8,0,0,0-1-1.07A5.13,5.13,0,0,0,19.44,44a6.14,6.14,0,0,0-2-.32,5.86,5.86,0,0,0-3,.73,4.75,4.75,0,0,0-1.94,2.05,6.75,6.75,0,0,0-.67,3,5.64,5.64,0,0,0,1.46,4.07,5.39,5.39,0,0,0,4.06,1.51,6.66,6.66,0,0,0,2.21-.33,4.84,4.84,0,0,0,1.61-.86,4,4,0,0,0,1-1.14,2.41,2.41,0,0,0,.31-1.12A1.24,1.24,0,0,0,22.08,50.84Z"/><path d="M31.72,44.18A3.53,3.53,0,0,0,30,43.73a2.14,2.14,0,0,0-1.42.45,5,5,0,0,0-1,1.3,2.38,2.38,0,0,0-.34-1.3,1.13,1.13,0,0,0-1-.45c-.91,0-1.36.63-1.36,1.89v7.82a1.84,1.84,0,0,0,.39,1.27,1.28,1.28,0,0,0,1,.44,1.35,1.35,0,0,0,1-.43,1.8,1.8,0,0,0,.4-1.28V51.09c0-.84,0-1.56.08-2.14A6.67,6.67,0,0,1,28,47.43a2.09,2.09,0,0,1,.6-1,1.57,1.57,0,0,1,1-.32,3.34,3.34,0,0,1,1,.19,3.32,3.32,0,0,0,.75.19,1.09,1.09,0,0,0,.76-.33,1.13,1.13,0,0,0,.36-.85A1.31,1.31,0,0,0,31.72,44.18Z"/><path d="M43.41,47.13a5,5,0,0,0-1.13-1.81,4.93,4.93,0,0,0-1.78-1.17,6.09,6.09,0,0,0-2.31-.42,6.26,6.26,0,0,0-2.29.41,4.92,4.92,0,0,0-2.89,3,7.21,7.21,0,0,0,0,4.65,5.38,5.38,0,0,0,1.13,1.81,5.07,5.07,0,0,0,1.77,1.17,6,6,0,0,0,2.29.42,6.22,6.22,0,0,0,2.31-.41,4.89,4.89,0,0,0,1.77-1.17,5.14,5.14,0,0,0,1.13-1.82,7,7,0,0,0,0-4.62Zm-3.19,5a2.44,2.44,0,0,1-2,1,2.53,2.53,0,0,1-1.47-.44,2.75,2.75,0,0,1-.95-1.26,5.11,5.11,0,0,1-.33-1.92,5,5,0,0,1,.34-1.94,2.6,2.6,0,0,1,1-1.26,2.48,2.48,0,0,1,1.45-.43,2.44,2.44,0,0,1,2,1A4.16,4.16,0,0,1,41,49.44,4.17,4.17,0,0,1,40.22,52.1Z"/><path d="M55.73,53.21c-.1-.18-.25-.43-.46-.77l-2.88-4.52,1.49-1.37c.76-.68,1.14-1.23,1.14-1.64a1.12,1.12,0,0,0-.35-.84,1.18,1.18,0,0,0-.88-.34A1.26,1.26,0,0,0,53,44a8.2,8.2,0,0,0-.89.84L49,48.12V41.31A1.93,1.93,0,0,0,48.61,40a1.28,1.28,0,0,0-1-.44,1.19,1.19,0,0,0-1,.49,2.36,2.36,0,0,0-.36,1.42v12a1.89,1.89,0,0,0,.37,1.27,1.28,1.28,0,0,0,1,.44,1.33,1.33,0,0,0,1-.44A1.74,1.74,0,0,0,49,53.46V51.23l1.51-1.44L53,53.86a6.19,6.19,0,0,0,.75,1,1.07,1.07,0,0,0,.79.28,1.27,1.27,0,0,0,1-.39,1.49,1.49,0,0,0,.36-1A1.07,1.07,0,0,0,55.73,53.21Z"/><path d="M27.65,59.42a1.16,1.16,0,0,0-.22-.49,1,1,0,0,0-.42-.31,1.6,1.6,0,0,0-.66-.11,2.43,2.43,0,0,0-.38,0l-.36.1V56.92L25,57v4.9h.6V59.14l.11,0,.17,0,.19,0,.2,0a.93.93,0,0,1,.4.07.51.51,0,0,1,.26.19,1,1,0,0,1,.14.36,2.66,2.66,0,0,1,0,.53v1.75h.6V60A2.45,2.45,0,0,0,27.65,59.42Z"/><path d="M32.1,59.26a.86.86,0,0,0-.22-.41,1,1,0,0,0-.39-.26,1.65,1.65,0,0,0-.62-.1,3.7,3.7,0,0,0-.59,0,2.19,2.19,0,0,0-.38.1l.07.5.33-.09a2.68,2.68,0,0,1,.52,0,1,1,0,0,1,.38.06.62.62,0,0,1,.23.19.58.58,0,0,1,.12.25c0,.1,0,.2,0,.3V60a.18.18,0,0,1-.09,0l-.16,0a.84.84,0,0,0-.18,0H31a2.48,2.48,0,0,0-.54.06,1.51,1.51,0,0,0-.45.18.84.84,0,0,0-.3.32.9.9,0,0,0-.12.48,1.19,1.19,0,0,0,.1.49.82.82,0,0,0,.27.34,1.28,1.28,0,0,0,.41.18,2.18,2.18,0,0,0,.52.06l.41,0,.37,0L32,61.9l.21,0V59.78A2,2,0,0,0,32.1,59.26Zm-.52,2.19a1.09,1.09,0,0,1-.28,0l-.37,0a1.14,1.14,0,0,1-.57-.13.49.49,0,0,1-.2-.45.51.51,0,0,1,.08-.28.87.87,0,0,1,.21-.17,1.15,1.15,0,0,1,.28-.08l.29,0a1.83,1.83,0,0,1,.35,0,.81.81,0,0,1,.21.05Z"/><path d="M35.11,61.44a.35.35,0,0,1-.16-.09.32.32,0,0,1-.09-.15,1.57,1.57,0,0,1,0-.25v-4l-.6.11v4a1,1,0,0,0,.23.7,1.18,1.18,0,0,0,.79.24l.08-.5Z"/><path d="M39.42,59.26a1.08,1.08,0,0,0-.22-.41,1,1,0,0,0-.4-.26,1.59,1.59,0,0,0-.61-.1,3.7,3.7,0,0,0-.59,0,2,2,0,0,0-.38.1l.07.5a1.8,1.8,0,0,1,.33-.09,2.68,2.68,0,0,1,.52,0,1,1,0,0,1,.38.06.62.62,0,0,1,.34.44,1.53,1.53,0,0,1,0,.3V60l-.09,0-.15,0a1.13,1.13,0,0,0-.18,0h-.19a2.35,2.35,0,0,0-.54.06,1.51,1.51,0,0,0-.45.18,1,1,0,0,0-.31.32,1,1,0,0,0-.11.48,1,1,0,0,0,.1.49.82.82,0,0,0,.27.34,1.28,1.28,0,0,0,.41.18,2.18,2.18,0,0,0,.52.06l.41,0L39,62l.31-.05.22,0V59.78A2,2,0,0,0,39.42,59.26Zm-.53,2.19a1,1,0,0,1-.27,0l-.38,0a1.13,1.13,0,0,1-.56-.13.49.49,0,0,1-.2-.45.51.51,0,0,1,.08-.28.71.71,0,0,1,.21-.17,1.15,1.15,0,0,1,.28-.08l.28,0a1.75,1.75,0,0,1,.35,0,.64.64,0,0,1,.21.05Z"/><path d="M42.42,61.44a.36.36,0,0,1-.24-.24,1.57,1.57,0,0,1,0-.25v-4l-.6.11v4a.91.91,0,0,0,.23.7,1.15,1.15,0,0,0,.78.24l.09-.5Z"/><path d="M41.34,22.89a5.7,5.7,0,0,1-4.16-6.19,3.54,3.54,0,0,1-1.46-2.48,6.45,6.45,0,0,1-.09-1.6q-.45,0-.93,0a11.25,11.25,0,1,0,11,13.4A4.94,4.94,0,0,1,41.34,22.89ZM35.4,14.62A11.17,11.17,0,0,0,37.24,22a9.58,9.58,0,0,0,6.24,4.08l.24,0-.08.2a11.65,11.65,0,0,1-2.85,3.91,9.41,9.41,0,0,1-4.24,2.32A7.76,7.76,0,0,1,31.77,32a12.77,12.77,0,0,1-3.92-2.72l0,0a14.9,14.9,0,0,0,4,2.42,7.88,7.88,0,0,0,4.53.31,9.42,9.42,0,0,0,4-2.17c.15-.13.29-.27.43-.41a9.45,9.45,0,0,1-3.7-1.7,9.17,9.17,0,0,1-2.58-3.55,16,16,0,0,1-1-8.57h.05A16.17,16.17,0,0,0,35,24a10.33,10.33,0,0,0,2.54,3.34,11.31,11.31,0,0,0,3.42,2,10.54,10.54,0,0,0,2.22-3A9.9,9.9,0,0,1,37,22.11a11.32,11.32,0,0,1-1.69-7.5Zm-7.78,11a5.84,5.84,0,0,0,2.54,3.51,8.73,8.73,0,0,0,4.2,1.32,10.72,10.72,0,0,0,3.3-.2,7.12,7.12,0,0,1-3.25-1.1,7.49,7.49,0,0,1-2.81-3.59,13.73,13.73,0,0,1-.9-4.46,14,14,0,0,1,.47-4.52l0,0A13.76,13.76,0,0,0,30.87,21a13.35,13.35,0,0,0,1,4.38,6.74,6.74,0,0,0,7,4.4l1.07,0-.95.45a9.59,9.59,0,0,1-4.62.72,9.28,9.28,0,0,1-4.47-1.42,6.33,6.33,0,0,1-2.57-3.86,10.39,10.39,0,0,1,.1-4.61l.05,0A11.92,11.92,0,0,0,27.62,25.58Zm9.15,8.08a9.7,9.7,0,0,1-9.64-3,9.65,9.65,0,0,1-1.78-4.92,10.85,10.85,0,0,1,.48-5.21,11.11,11.11,0,0,1,6.28-6.26,7,7,0,0,0-3.05.89,8.55,8.55,0,0,0-3.17,3.31,12.36,12.36,0,0,0-1.21,9.07h0a12.44,12.44,0,0,1,1.06-9.16,8.77,8.77,0,0,1,3.2-3.45,9.53,9.53,0,0,1,4.48-1.24h.11l1.76-.07-1.7.64h0a11.09,11.09,0,0,0-7.34,6.41,9.84,9.84,0,0,0-.44,5,9.26,9.26,0,0,0,1.72,4.67,9.55,9.55,0,0,0,9.15,2.92,9.72,9.72,0,0,0,7.24-6.52h0A9.68,9.68,0,0,1,36.77,33.66Z"/><circle cx="41.68" cy="17.94" r="1.98"/><circle cx="38.51" cy="12.48" r="0.95"/><circle cx="45.32" cy="22.76" r="1.2"/><circle cx="40.65" cy="13.79" r="0.52"/><circle cx="44.42" cy="14.1" r="0.41"/><circle cx="45.86" cy="17.62" r="0.76"/><circle cx="41.37" cy="21.45" r="0.43"/><circle cx="37.67" cy="15.26" r="0.36"/><path d="M23.45,18.47a2.38,2.38,0,0,0,1.62-1.63c.56-1.51.31-2.53-.4-2.8s-2.49.94-2.81,2.29a1.75,1.75,0,0,0,.32,1.76,13.34,13.34,0,0,0,3,15.06s.07,0,.09,0a.08.08,0,0,0,0-.1,13.34,13.34,0,0,1-3.39-7.58A12,12,0,0,1,23.45,18.47Z"/><path d="M44.79,34.48l-2.54,1.13a.17.17,0,0,1-.22-.08.22.22,0,0,1,0-.11.18.18,0,0,1,.08-.11l2.56-1.13-.13-.28L42,35c-.06,0-.16,0-.19-.09a.11.11,0,0,1,0-.1.12.12,0,0,1,.08-.1l2.56-1.13-.13-.29-2.55,1.12a.16.16,0,0,1-.21-.07.14.14,0,0,1,0-.11.14.14,0,0,1,.08-.11L44.15,33,44,32.76a30.4,30.4,0,0,0-3.19.88A1.27,1.27,0,0,0,40.07,35a12.12,12.12,0,0,1-7,1.33,12.33,12.33,0,0,1-7.23-3.42.09.09,0,0,0-.1,0,.08.08,0,0,0,0,.1A12.83,12.83,0,0,0,33,37,13.14,13.14,0,0,0,40.47,36l0,0a1.2,1.2,0,0,0,1.59.43,28.62,28.62,0,0,0,2.81-1.76Z"/></svg>