<svg id="Layer_1" data-name="Layer 1" xmlns="http://www.w3.org/2000/svg" viewBox="0 0 70 70"><defs><style>.cls-1{fill:#448b40;}.cls-2{fill:#75ad42;}.cls-3{fill:#4d9843;}.cls-4{fill:#fff;}</style></defs><title>logo crok halal fnl</title><path class="cls-1" d="M21.31,49.93A2.67,2.67,0,0,1,21,51.17a4.24,4.24,0,0,1-1,1.24,5.32,5.32,0,0,1-1.77,1,7.64,7.64,0,0,1-2.42.36,5.91,5.91,0,0,1-4.46-1.66,6.18,6.18,0,0,1-1.6-4.46,7.34,7.34,0,0,1,.74-3.35A5.24,5.24,0,0,1,12.53,42a6.54,6.54,0,0,1,3.31-.79,6.47,6.47,0,0,1,2.2.35,5.65,5.65,0,0,1,1.69.9,4.45,4.45,0,0,1,1.06,1.18,2.34,2.34,0,0,1,.37,1.16,1.23,1.23,0,0,1-.42.94,1.37,1.37,0,0,1-1,.38,1,1,0,0,1-.64-.19,3.46,3.46,0,0,1-.57-.64A4.84,4.84,0,0,0,17.36,44a2.71,2.71,0,0,0-1.56-.43,2.67,2.67,0,0,0-2.2,1.07,4.59,4.59,0,0,0-.84,2.92A5.66,5.66,0,0,0,13,49.15a3.52,3.52,0,0,0,.62,1.24,2.74,2.74,0,0,0,1,.78A3.2,3.2,0,0,0,17.43,51a3.67,3.67,0,0,0,1.16-1.31,3.05,3.05,0,0,1,.61-.81,1.16,1.16,0,0,1,.81-.3,1.21,1.21,0,0,1,.93.43A1.37,1.37,0,0,1,21.31,49.93Z"/><path class="cls-1" d="M27.05,49.3v2.58a2,2,0,0,1-.44,1.4,1.46,1.46,0,0,1-1.11.47,1.39,1.39,0,0,1-1.09-.48A2,2,0,0,1,24,51.88V43.3c0-1.38.49-2.07,1.49-2.07a1.27,1.27,0,0,1,1.11.48A2.64,2.64,0,0,1,27,43.15a5.39,5.39,0,0,1,1.14-1.44,2.34,2.34,0,0,1,1.55-.48,4,4,0,0,1,1.88.48A1.45,1.45,0,0,1,32.43,43a1.3,1.3,0,0,1-1.23,1.3,3.84,3.84,0,0,1-.81-.21,3.86,3.86,0,0,0-1.15-.21,1.69,1.69,0,0,0-1.1.35,2.28,2.28,0,0,0-.67,1.06A7.85,7.85,0,0,0,27.14,47C27.08,47.59,27.05,48.38,27.05,49.3Z"/><path class="cls-1" d="M44.76,47.49A7.21,7.21,0,0,1,44.33,50a5.5,5.5,0,0,1-1.24,2,5.34,5.34,0,0,1-1.94,1.28,6.8,6.8,0,0,1-2.54.45,6.64,6.64,0,0,1-2.51-.45A5.59,5.59,0,0,1,34.16,52a5.82,5.82,0,0,1-1.24-2,7.83,7.83,0,0,1,0-5.09,5.53,5.53,0,0,1,1.23-2,5.41,5.41,0,0,1,1.94-1.27,7,7,0,0,1,2.51-.44,6.84,6.84,0,0,1,2.54.45A5.52,5.52,0,0,1,44.34,45,7.36,7.36,0,0,1,44.76,47.49Zm-3.09,0a4.6,4.6,0,0,0-.83-2.93A2.91,2.91,0,0,0,37,44,3,3,0,0,0,36,45.36a5.75,5.75,0,0,0-.37,2.13A5.48,5.48,0,0,0,36,49.6,3,3,0,0,0,37,51a2.76,2.76,0,0,0,1.61.48,2.66,2.66,0,0,0,2.23-1.06A4.6,4.6,0,0,0,41.67,47.49Z"/><path class="cls-1" d="M54.85,52.34l-2.72-4.47-1.66,1.58V51.9A1.9,1.9,0,0,1,50,53.27a1.46,1.46,0,0,1-1.08.48,1.38,1.38,0,0,1-1.11-.48,2,2,0,0,1-.41-1.39V38.75a2.65,2.65,0,0,1,.39-1.57,1.34,1.34,0,0,1,1.13-.53,1.42,1.42,0,0,1,1.13.48,2.15,2.15,0,0,1,.42,1.44V46l3.46-3.63a8.57,8.57,0,0,1,1-.92,1.31,1.31,0,0,1,.82-.25,1.3,1.3,0,0,1,1,.37,1.2,1.2,0,0,1,.39.91c0,.46-.42,1.06-1.26,1.81l-1.63,1.5,3.16,5c.23.37.4.65.5.84a1.2,1.2,0,0,1,.15.55,1.58,1.58,0,0,1-.4,1.15,1.37,1.37,0,0,1-1.06.43,1.13,1.13,0,0,1-.86-.31A7,7,0,0,1,54.85,52.34Z"/><path class="cls-2" d="M24.16,61.19V55.81l.65-.11v1.88a2.62,2.62,0,0,1,.4-.11,2.71,2.71,0,0,1,.41,0,1.77,1.77,0,0,1,.73.13,1.07,1.07,0,0,1,.46.34,1.21,1.21,0,0,1,.24.54,2.82,2.82,0,0,1,.08.68v2.07h-.66V59.26a3,3,0,0,0,0-.57.94.94,0,0,0-.15-.39.62.62,0,0,0-.28-.22,1.35,1.35,0,0,0-.44-.07l-.22,0-.22,0-.18,0-.12,0v3.06Z"/><path class="cls-2" d="M30.59,57.42a1.83,1.83,0,0,1,.66.1,1.09,1.09,0,0,1,.44.29,1.15,1.15,0,0,1,.24.45,2,2,0,0,1,.07.57v2.3l-.24,0-.34.05-.41,0-.45,0A2.54,2.54,0,0,1,30,61.2a1.32,1.32,0,0,1-.45-.2.88.88,0,0,1-.3-.36,1.31,1.31,0,0,1-.11-.55,1.08,1.08,0,0,1,.13-.52,1,1,0,0,1,.34-.35,1.44,1.44,0,0,1,.49-.2,2.32,2.32,0,0,1,.59-.07h.21l.2,0,.17,0,.1,0v-.19a1.75,1.75,0,0,0,0-.32.79.79,0,0,0-.12-.28.65.65,0,0,0-.26-.2.93.93,0,0,0-.41-.08A3.1,3.1,0,0,0,30,58a1.47,1.47,0,0,0-.36.1l-.08-.55a2,2,0,0,1,.42-.11A4.4,4.4,0,0,1,30.59,57.42Zm.05,3.29h.42a2.16,2.16,0,0,0,.3,0v-1.1l-.23-.06a2.21,2.21,0,0,0-.39,0l-.31,0a1,1,0,0,0-.31.08.83.83,0,0,0-.23.19.5.5,0,0,0-.09.31.53.53,0,0,0,.23.49A1.18,1.18,0,0,0,30.64,60.71Z"/><path class="cls-2" d="M35.4,61.26a1.3,1.3,0,0,1-.87-.26,1,1,0,0,1-.25-.77V55.81l.66-.11v4.42a1,1,0,0,0,0,.27.26.26,0,0,0,.09.17.55.55,0,0,0,.17.1l.26.05Z"/><path class="cls-2" d="M38.61,57.42a1.86,1.86,0,0,1,.67.1,1.17,1.17,0,0,1,.44.29,1.15,1.15,0,0,1,.24.45,2.47,2.47,0,0,1,.07.57v2.3l-.24,0-.34.05-.41,0-.45,0A2.54,2.54,0,0,1,38,61.2a1.37,1.37,0,0,1-.46-.2.94.94,0,0,1-.29-.36,1.31,1.31,0,0,1-.11-.55,1.08,1.08,0,0,1,.13-.52.93.93,0,0,1,.33-.35,1.59,1.59,0,0,1,.5-.2,2.32,2.32,0,0,1,.59-.07h.21l.2,0,.17,0,.09,0v-.19a1.73,1.73,0,0,0,0-.32.66.66,0,0,0-.13-.28.56.56,0,0,0-.25-.2,1,1,0,0,0-.41-.08A3.1,3.1,0,0,0,38,58a1.58,1.58,0,0,0-.37.1l-.07-.55a2,2,0,0,1,.42-.11A4.26,4.26,0,0,1,38.61,57.42Zm.06,3.29h.41a2.16,2.16,0,0,0,.3,0v-1.1l-.22-.06a2.21,2.21,0,0,0-.39,0l-.32,0a1,1,0,0,0-.3.08.71.71,0,0,0-.23.19.5.5,0,0,0-.09.31.53.53,0,0,0,.22.49A1.24,1.24,0,0,0,38.67,60.71Z"/><path class="cls-2" d="M43.42,61.26a1.29,1.29,0,0,1-.86-.26,1,1,0,0,1-.25-.77V55.81L43,55.7v4.42a1,1,0,0,0,0,.27.39.39,0,0,0,.09.17.69.69,0,0,0,.17.1l.27.05Z"/><path class="cls-1" d="M46.89,21.77A12.35,12.35,0,1,1,34.78,7.06c.36,0,.69,0,1,0a7.72,7.72,0,0,0,.09,1.75,3.86,3.86,0,0,0,1.6,2.72,6.27,6.27,0,0,0,4.57,6.79A5.45,5.45,0,0,0,46.89,21.77Z"/><circle class="cls-1" cx="42.45" cy="12.93" r="2.17"/><circle class="cls-1" cx="38.96" cy="6.94" r="1.04"/><circle class="cls-2" cx="46.44" cy="18.21" r="1.32"/><circle class="cls-2" cx="41.31" cy="8.37" r="0.57"/><circle class="cls-3" cx="45.45" cy="8.72" r="0.45"/><circle class="cls-1" cx="47.03" cy="12.58" r="0.84"/><circle class="cls-3" cx="42.1" cy="16.78" r="0.47"/><circle class="cls-3" cx="38.04" cy="9.99" r="0.4"/><path class="cls-4" d="M44.9,22.56A10.67,10.67,0,0,1,37,29.72c-3.59.69-7.69-.34-10-3.2-1.21-1.4-1.56-3.3-1.88-5.13a10.81,10.81,0,0,1,.48-5.47c1.27-3.51,4.57-6,8.05-7h0l1.86-.71-1.93.07-.1,0h0a10.38,10.38,0,0,0-4.93,1.36A9.74,9.74,0,0,0,25,13.4a13.7,13.7,0,0,0-1.16,10h0a13.61,13.61,0,0,1,1.32-10A9.51,9.51,0,0,1,28.6,9.86a7.74,7.74,0,0,1,3.35-1,12.21,12.21,0,0,0-6.9,6.87,12.06,12.06,0,0,0-.53,5.71c.31,1.86.65,3.87,1.95,5.41A10.83,10.83,0,0,0,45,22.58Z"/><path class="cls-4" d="M37.34,17.51a10.85,10.85,0,0,0,6.73,4.68,11.65,11.65,0,0,1-2.43,3.27,12.31,12.31,0,0,1-3.75-2.23,11.29,11.29,0,0,1-2.79-3.66,17.88,17.88,0,0,1-1.49-9.18h-.06a17.48,17.48,0,0,0,1.12,9.39,10.1,10.1,0,0,0,2.84,3.91,10.36,10.36,0,0,0,4.05,1.85l-.47.46a10.3,10.3,0,0,1-4.4,2.38,8.62,8.62,0,0,1-5-.35,16.82,16.82,0,0,1-4.41-2.64l0,0a13.88,13.88,0,0,0,4.3,3,8.51,8.51,0,0,0,5.25.54,10.45,10.45,0,0,0,4.64-2.55,12.49,12.49,0,0,0,3.13-4.29l.09-.21-.26-.05a10.49,10.49,0,0,1-6.85-4.48,12.27,12.27,0,0,1-2-8.07h-.06A12.45,12.45,0,0,0,37.34,17.51Z"/><path class="cls-4" d="M26.76,16.36a11.47,11.47,0,0,0-.11,5.05,6.92,6.92,0,0,0,2.83,4.24,10.1,10.1,0,0,0,4.89,1.55,10.55,10.55,0,0,0,5.07-.78l1.05-.49-1.17,0a8,8,0,0,1-4.65-1.11,7.86,7.86,0,0,1-3-3.73,14.52,14.52,0,0,1-1.08-4.79A15.14,15.14,0,0,1,31,11.41h-.06a15.27,15.27,0,0,0-.51,5,15.31,15.31,0,0,0,1,4.9,8.3,8.3,0,0,0,3.08,3.94A7.86,7.86,0,0,0,38,26.39a12.19,12.19,0,0,1-3.62.23,9.66,9.66,0,0,1-4.61-1.45A6.46,6.46,0,0,1,27,21.32a12.86,12.86,0,0,1-.2-4.95Z"/><path class="cls-2" d="M22.44,13.51a2.58,2.58,0,0,0,1.77-1.78c.62-1.66.34-2.78-.43-3.08s-2.73,1-3.08,2.52a1.91,1.91,0,0,0,.35,1.93A14.82,14.82,0,0,0,20,21.28a15.08,15.08,0,0,0,4.37,8.34.08.08,0,0,0,.1,0,.09.09,0,0,0,0-.11,14.59,14.59,0,0,1-3.72-8.32A13.27,13.27,0,0,1,22.44,13.51Z"/><path class="cls-2" d="M45.85,31.07l-2.79,1.24a.18.18,0,0,1-.24-.08.3.3,0,0,1,0-.13.21.21,0,0,1,.1-.11l2.8-1.24-.14-.3-2.81,1.23a.16.16,0,0,1-.21-.1.12.12,0,0,1,0-.1c0-.06,0-.11.1-.12l2.8-1.24-.13-.32L42.49,31a.19.19,0,0,1-.22-.08.15.15,0,0,1,0-.13.23.23,0,0,1,.09-.12l2.8-1.21L45,29.19a31.5,31.5,0,0,0-3.5,1,1.36,1.36,0,0,0-.83,1.46,13.38,13.38,0,0,1-15.61-2.3.09.09,0,0,0-.11,0,.08.08,0,0,0,0,.11A14,14,0,0,0,32.9,33.8a14.3,14.3,0,0,0,8.22-1l0,0a1.32,1.32,0,0,0,1.75.48A31.69,31.69,0,0,0,46,31.37Z"/></svg>